<svg version="1.1" id="Layer_1" xmlns="http://www.w3.org/2000/svg" xmlns:xlink="http://www.w3.org/1999/xlink" x="0px" y="0px" viewBox="0 0 48 48" enable-background="new 0 0 48 48" xml:space="preserve">
<path fill="#E8EAF6" d="M41,42H9V20.945L25.051,9.184L41,20.484V42z"></path>
<path fill="#DD2C00" d="M43,25L25,12.953L7,25v-7L25,6l0,0l18,12V25z"></path>
<rect x="9" y="37" fill="#C5CAE9" width="32" height="5"></rect>
<path fill="#FF3D00" d="M27,27.555V20c0-1.1-0.9-2-2-2s-2,0.9-2,2v7.555c-1.19,0.693-2,1.969-2,3.445c0,2.208,1.792,4,4,4
	s4-1.792,4-4C29,29.524,28.19,28.248,27,27.555z"></path>
<path fill="#9FA8DA" d="M27,21h3v2h-3V21z M27,26h3v-2h-3V26z"></path>
</svg>
